<?xml version="1.0" encoding="UTF-8" standalone="no"?>
<!DOCTYPE svg PUBLIC "-//W3C//DTD SVG 1.1//EN" "http://www.w3.org/Graphics/SVG/1.1/DTD/svg11.dtd">
<svg width="100%" height="100%" viewBox="0 0 286 151" version="1.1" xmlns="http://www.w3.org/2000/svg" xmlns:xlink="http://www.w3.org/1999/xlink" xml:space="preserve" xmlns:serif="http://www.serif.com/" style="fill-rule:evenodd;clip-rule:evenodd;stroke-linejoin:round;stroke-miterlimit:2;">
    <g transform="matrix(1,0,0,1,-2442.65,-2739.8)">
        <g transform="matrix(1.4624,0,0,2.81233,0,0)">
            <g transform="matrix(0.663246,0,0,0.151859,-2699.63,846.259)">
                <g transform="matrix(0.564284,0,0,1.28154,6487.34,663.937)">
                    <path d="M325.22,386.433C323.354,389.02 321.027,391.06 318.24,392.553C315.454,394.046 312.46,394.793 309.26,394.793C305.634,394.793 302.294,393.846 299.24,391.953C296.187,390.06 293.76,387.506 291.96,384.293C290.16,381.08 289.26,377.566 289.26,373.753C289.26,369.913 290.16,366.38 291.96,363.153C293.76,359.926 296.187,357.366 299.24,355.473C302.294,353.58 305.634,352.633 309.26,352.633C312.46,352.633 315.46,353.38 318.26,354.873C321.06,356.366 323.38,358.42 325.22,361.033L319.7,363.993C318.394,362.34 316.814,361.06 314.96,360.153C313.107,359.246 311.207,358.793 309.26,358.793C306.7,358.793 304.36,359.473 302.24,360.833C300.12,362.193 298.454,364.02 297.24,366.313C296.027,368.606 295.42,371.086 295.42,373.753C295.42,376.42 296.04,378.893 297.28,381.173C298.52,383.453 300.2,385.266 302.32,386.613C304.44,387.96 306.754,388.633 309.26,388.633C311.287,388.633 313.22,388.166 315.06,387.233C316.9,386.3 318.447,385.046 319.7,383.473L325.22,386.433Z" style="fill:rgb(48,48,48);fill-rule:nonzero;"/>
                    <path d="M335.06,347.313C334.127,347.313 333.32,346.973 332.64,346.293C331.96,345.613 331.62,344.82 331.62,343.913C331.62,342.98 331.96,342.166 332.64,341.473C333.32,340.78 334.127,340.433 335.06,340.433C335.994,340.433 336.8,340.78 337.48,341.473C338.16,342.166 338.5,342.98 338.5,343.913C338.5,344.82 338.16,345.613 337.48,346.293C336.8,346.973 335.994,347.313 335.06,347.313ZM337.94,353.753L337.94,393.753L331.78,393.753L331.78,353.753L337.94,353.753Z" style="fill:rgb(48,48,48);fill-rule:nonzero;"/>
                    <path d="M365.74,394.793C362.114,394.793 358.774,393.846 355.72,391.953C352.667,390.06 350.24,387.506 348.44,384.293C346.64,381.08 345.74,377.566 345.74,373.753C345.74,369.913 346.64,366.38 348.44,363.153C350.24,359.926 352.667,357.366 355.72,355.473C358.774,353.58 362.114,352.633 365.74,352.633C369.5,352.633 372.887,353.586 375.9,355.493C378.914,357.4 381.28,360.006 383,363.313C384.72,366.62 385.58,370.3 385.58,374.353C385.58,375.1 385.567,375.66 385.54,376.033L352.26,376.033C352.58,378.406 353.36,380.553 354.6,382.473C355.84,384.393 357.434,385.9 359.38,386.993C361.327,388.086 363.447,388.633 365.74,388.633C368.247,388.633 370.527,387.986 372.58,386.693C374.634,385.4 376.3,383.593 377.58,381.273L383.82,382.713C382.754,385.086 381.307,387.186 379.48,389.013C377.654,390.84 375.56,392.26 373.2,393.273C370.84,394.286 368.354,394.793 365.74,394.793ZM379.34,371.113C379.127,368.793 378.387,366.64 377.12,364.653C375.854,362.666 374.22,361.086 372.22,359.913C370.22,358.74 368.06,358.153 365.74,358.153C363.42,358.153 361.267,358.726 359.28,359.873C357.294,361.02 355.667,362.58 354.4,364.553C353.134,366.526 352.367,368.713 352.1,371.113L379.34,371.113Z" style="fill:rgb(48,48,48);fill-rule:nonzero;"/>
                    <rect x="392.98" y="333.753" width="6.16" height="59.96" style="fill:rgb(48,48,48);fill-rule:nonzero;"/>
                    <path d="M427.1,394.793C423.474,394.793 420.134,393.846 417.08,391.953C414.027,390.06 411.6,387.506 409.8,384.293C408,381.08 407.1,377.566 407.1,373.753C407.1,369.913 408,366.38 409.8,363.153C411.6,359.926 414.027,357.366 417.08,355.473C420.134,353.58 423.474,352.633 427.1,352.633C430.727,352.633 434.067,353.58 437.12,355.473C440.174,357.366 442.6,359.926 444.4,363.153C446.2,366.38 447.1,369.913 447.1,373.753C447.1,377.566 446.2,381.08 444.4,384.293C442.6,387.506 440.174,390.06 437.12,391.953C434.067,393.846 430.727,394.793 427.1,394.793ZM427.1,388.633C429.66,388.633 431.994,387.953 434.1,386.593C436.207,385.233 437.874,383.413 439.1,381.133C440.327,378.853 440.94,376.393 440.94,373.753C440.94,371.086 440.32,368.606 439.08,366.313C437.84,364.02 436.167,362.193 434.06,360.833C431.954,359.473 429.634,358.793 427.1,358.793C424.54,358.793 422.207,359.473 420.1,360.833C417.994,362.193 416.327,364.02 415.1,366.313C413.874,368.606 413.26,371.086 413.26,373.753C413.26,376.473 413.887,378.973 415.14,381.253C416.394,383.533 418.08,385.333 420.2,386.653C422.32,387.973 424.62,388.633 427.1,388.633Z" style="fill:rgb(48,48,48);fill-rule:nonzero;"/>
                    <path d="M485.66,353.753L463.78,413.753L457.26,413.753L464.5,393.713L450.14,353.753L456.9,353.753L467.58,385.273L479.14,353.753L485.66,353.753Z" style="fill:rgb(48,48,48);fill-rule:nonzero;"/>
                    <path d="M522.54,393.753L522.54,372.513C522.54,370.006 522,367.686 520.92,365.553C519.84,363.42 518.367,361.726 516.5,360.473C514.634,359.22 512.58,358.593 510.34,358.593C508.127,358.593 506.12,359.22 504.32,360.473C502.52,361.726 501.107,363.413 500.08,365.533C499.054,367.653 498.54,369.98 498.54,372.513L498.54,393.753L492.38,393.753L492.38,353.753L498.54,353.753L498.54,360.153C500.06,357.78 501.9,355.933 504.06,354.613C506.22,353.293 508.594,352.633 511.18,352.633C514.54,352.633 517.547,353.526 520.2,355.313C522.854,357.1 524.92,359.5 526.4,362.513C527.88,365.526 528.647,368.806 528.7,372.353L528.7,393.753L522.54,393.753Z" style="fill:rgb(48,48,48);fill-rule:nonzero;"/>
                    <path d="M540.94,347.313C540.007,347.313 539.2,346.973 538.52,346.293C537.84,345.613 537.5,344.82 537.5,343.913C537.5,342.98 537.84,342.166 538.52,341.473C539.2,340.78 540.007,340.433 540.94,340.433C541.874,340.433 542.68,340.78 543.36,341.473C544.04,342.166 544.38,342.98 544.38,343.913C544.38,344.82 544.04,345.613 543.36,346.293C542.68,346.973 541.874,347.313 540.94,347.313ZM543.82,353.753L543.82,393.753L537.66,393.753L537.66,353.753L543.82,353.753Z" style="fill:rgb(48,48,48);fill-rule:nonzero;"/>
                    <path d="M571.62,394.793C567.994,394.793 564.654,393.846 561.6,391.953C558.547,390.06 556.12,387.506 554.32,384.293C552.52,381.08 551.62,377.566 551.62,373.753C551.62,369.913 552.52,366.38 554.32,363.153C556.12,359.926 558.547,357.366 561.6,355.473C564.654,353.58 567.994,352.633 571.62,352.633C575.38,352.633 578.767,353.586 581.78,355.493C584.794,357.4 587.16,360.006 588.88,363.313C590.6,366.62 591.46,370.3 591.46,374.353C591.46,375.1 591.447,375.66 591.42,376.033L558.14,376.033C558.46,378.406 559.24,380.553 560.48,382.473C561.72,384.393 563.314,385.9 565.26,386.993C567.207,388.086 569.327,388.633 571.62,388.633C574.127,388.633 576.407,387.986 578.46,386.693C580.514,385.4 582.18,383.593 583.46,381.273L589.7,382.713C588.634,385.086 587.187,387.186 585.36,389.013C583.534,390.84 581.44,392.26 579.08,393.273C576.72,394.286 574.234,394.793 571.62,394.793ZM585.22,371.113C585.007,368.793 584.267,366.64 583,364.653C581.734,362.666 580.1,361.086 578.1,359.913C576.1,358.74 573.94,358.153 571.62,358.153C569.3,358.153 567.147,358.726 565.16,359.873C563.174,361.02 561.547,362.58 560.28,364.553C559.014,366.526 558.247,368.713 557.98,371.113L585.22,371.113Z" style="fill:rgb(48,48,48);fill-rule:nonzero;"/>
                    <path d="M618.18,352.633C621.994,352.633 625.514,353.58 628.74,355.473C631.967,357.366 634.527,359.926 636.42,363.153C638.314,366.38 639.26,369.9 639.26,373.713C639.26,377.526 638.314,381.046 636.42,384.273C634.527,387.5 631.967,390.06 628.74,391.953C625.514,393.846 621.994,394.793 618.18,394.793C615.087,394.793 612.354,394.06 609.98,392.593C607.607,391.126 605.714,389.126 604.3,386.593L604.3,393.753L598.14,393.753L598.14,333.753L604.3,333.753L604.3,360.833C605.714,358.3 607.607,356.3 609.98,354.833C612.354,353.366 615.087,352.633 618.18,352.633ZM618.1,388.793C620.794,388.793 623.28,388.12 625.56,386.773C627.84,385.426 629.647,383.593 630.98,381.273C632.314,378.953 632.98,376.433 632.98,373.713C632.98,370.966 632.3,368.433 630.94,366.113C629.58,363.793 627.76,361.96 625.48,360.613C623.2,359.266 620.74,358.593 618.1,358.593C615.46,358.593 613.134,359.273 611.12,360.633C609.107,361.993 607.554,363.82 606.46,366.113C605.367,368.406 604.82,370.94 604.82,373.713C604.82,376.513 605.367,379.06 606.46,381.353C607.554,383.646 609.107,385.46 611.12,386.793C613.134,388.126 615.46,388.793 618.1,388.793Z" style="fill:rgb(48,48,48);fill-rule:nonzero;"/>
                    <rect x="646.54" y="333.753" width="6.16" height="59.96" style="fill:rgb(48,48,48);fill-rule:nonzero;"/>
                    <path d="M702.18,393.753L696.02,393.753L696.02,386.593C694.607,389.126 692.707,391.126 690.32,392.593C687.934,394.06 685.194,394.793 682.1,394.793C678.287,394.793 674.774,393.846 671.56,391.953C668.347,390.06 665.794,387.506 663.9,384.293C662.007,381.08 661.06,377.566 661.06,373.753C661.06,369.913 662.007,366.38 663.9,363.153C665.794,359.926 668.347,357.366 671.56,355.473C674.774,353.58 678.287,352.633 682.1,352.633C685.194,352.633 687.934,353.366 690.32,354.833C692.707,356.3 694.607,358.3 696.02,360.833L696.02,353.753L702.18,353.753L702.18,393.753ZM682.18,388.833C684.847,388.833 687.187,388.16 689.2,386.813C691.214,385.466 692.767,383.646 693.86,381.353C694.954,379.06 695.5,376.526 695.5,373.753C695.5,370.926 694.954,368.366 693.86,366.073C692.767,363.78 691.207,361.966 689.18,360.633C687.154,359.3 684.82,358.633 682.18,358.633C679.487,358.633 677.007,359.313 674.74,360.673C672.474,362.033 670.674,363.866 669.34,366.173C668.007,368.48 667.34,371.006 667.34,373.753C667.34,376.5 668.02,379.026 669.38,381.333C670.74,383.64 672.554,385.466 674.82,386.813C677.087,388.16 679.54,388.833 682.18,388.833Z" style="fill:rgb(48,48,48);fill-rule:nonzero;"/>
                </g>
                <g transform="matrix(0.564284,0,0,1.28154,5380.06,729.747)">
                    <path d="M2196.18,101.551C2196.41,102.665 2196.53,103.819 2196.53,105C2196.53,114.361 2188.93,121.961 2179.57,121.961C2170.2,121.961 2162.61,114.361 2162.61,105C2162.61,95.639 2170.2,88.039 2179.57,88.039C2180.75,88.039 2181.9,88.16 2183.01,88.391C2178.39,89.604 2174.98,93.813 2174.98,98.813C2174.98,104.759 2179.81,109.586 2185.75,109.586C2190.75,109.586 2194.96,106.173 2196.18,101.551Z" style="fill:rgb(48,48,48);"/>
                </g>
                <g transform="matrix(0.564284,0,0,1.28154,5380.06,-633.811)">
                    <path d="M2141.93,1407.44C2141.93,1407.44 2141.93,1249.29 2141.93,1249.29L2141.93,1249.29C2141.98,1228.56 2158.82,1211.75 2179.57,1211.75C2200.31,1211.75 2217.15,1228.56 2217.2,1249.29L2217.2,1249.29L2217.2,1332.17C2217.2,1352.86 2200.47,1369.67 2179.81,1369.8L2179.32,1369.81C2158.66,1369.94 2141.93,1386.75 2141.93,1407.44ZM2197.84,1310.52C2200.92,1310.52 2203.41,1313.02 2203.41,1316.1C2203.41,1319.17 2200.92,1321.67 2197.84,1321.67C2194.76,1321.67 2192.26,1319.17 2192.26,1316.1C2192.26,1313.02 2194.76,1310.52 2197.84,1310.52Z" style="fill:rgb(48,48,48);"/>
                </g>
            </g>
        </g>
    </g>
</svg>
