<?xml version="1.0" encoding="UTF-8" standalone="no"?>
<!DOCTYPE svg PUBLIC "-//W3C//DTD SVG 1.1//EN" "http://www.w3.org/Graphics/SVG/1.1/DTD/svg11.dtd">
<svg width="100%" height="100%" viewBox="0 0 36 122" version="1.1" xmlns="http://www.w3.org/2000/svg" xmlns:xlink="http://www.w3.org/1999/xlink" xml:space="preserve" xmlns:serif="http://www.serif.com/" style="fill-rule:evenodd;clip-rule:evenodd;stroke-linejoin:round;stroke-miterlimit:2;">
    <g transform="matrix(1,0,0,1,-406.665,-149.084)">
        <g transform="matrix(1,0,0,2,0,0)">
            <g transform="matrix(0.114484,0,0,0.0572418,93.6397,73.4248)">
                <g transform="matrix(4.16667,0,0,4.16667,-6190.46,-347.309)">
                    <path d="M2196.18,101.551C2196.41,102.665 2196.53,103.819 2196.53,105C2196.53,114.361 2188.93,121.961 2179.57,121.961C2170.2,121.961 2162.61,114.361 2162.61,105C2162.61,95.639 2170.2,88.039 2179.57,88.039C2180.75,88.039 2181.9,88.16 2183.01,88.391C2178.39,89.604 2174.98,93.813 2174.98,98.813C2174.98,104.759 2179.81,109.586 2185.75,109.586C2190.75,109.586 2194.96,106.173 2196.18,101.551Z" style="fill:rgb(51,47,46);"/>
                </g>
                <g transform="matrix(4.16667,0,0,4.16667,-6190.46,-3067.97)">
                    <path d="M2141.93,996.401L2141.93,838.246L2141.93,838.246C2141.98,817.519 2158.82,800.704 2179.57,800.704C2200.31,800.704 2217.15,817.519 2217.2,838.246L2217.2,838.246L2217.2,921.126C2217.2,941.818 2200.47,958.632 2179.81,958.763L2179.32,958.764C2158.66,958.895 2141.93,975.709 2141.93,996.401ZM2197.84,899.477C2200.92,899.477 2203.41,901.976 2203.41,905.054C2203.41,908.132 2200.92,910.63 2197.84,910.63C2194.76,910.63 2192.26,908.132 2192.26,905.054C2192.26,901.976 2194.76,899.477 2197.84,899.477Z" style="fill:rgb(51,47,46);"/>
                </g>
            </g>
        </g>
    </g>
</svg>
